<svg width="1114" height="240" viewBox="0 0 1114 240" fill="none" xmlns="http://www.w3.org/2000/svg">
<path d="M151.275 212.662L103.917 240.001L86.7017 230.048L151.275 192.774V212.662ZM22.2983 140.333L28.2896 143.783L45.5044 153.718L103.917 187.446L151.276 160.107V179.995L75.6489 223.657L0.00244141 179.995V160.107L75.6489 203.789L86.7017 197.399L0.00244141 147.329V127.46L22.2983 140.333ZM207.85 92.6523V179.995L190.617 189.93V102.605L179.564 96.2158V196.319L162.349 206.272V86.2627L114.99 58.9238L132.205 48.9893L207.85 92.6523ZM121.15 9.93457L45.5034 53.6162V66.3945L132.203 16.3232L149.417 26.2773L125.662 39.9844L121.15 42.6006L103.917 52.5352L76.4634 68.4033L73.7905 69.9395L45.5034 86.2627V140.959L28.2886 131.006V43.6621L103.917 0L121.15 9.93457ZM17.2173 124.617L0.00244141 114.683V60.0059L17.2173 50.0518V124.617ZM207.848 60.0059V79.874L143.274 42.6016L160.489 32.667L207.848 60.0059Z" fill="#24293B"/>
<path fill-rule="evenodd" clip-rule="evenodd" d="M349.705 58.5527C361.078 58.5528 371.499 61.242 380.684 66.5358V66.5521C389.868 71.8459 397.182 79.2441 402.426 88.5458C407.67 97.8309 410.326 108.419 410.326 120.008C410.326 131.598 407.67 142.186 402.426 151.471C397.182 160.756 389.868 168.154 380.684 173.464C371.499 178.758 361.195 181.447 349.705 181.447C338.216 181.447 327.728 178.758 318.559 173.464C309.375 168.171 302.061 160.772 296.817 151.471C291.573 142.186 288.917 131.598 288.917 120.008C288.917 108.419 291.573 97.8313 296.817 88.5295C302.061 79.2444 309.375 71.8463 318.559 66.5358C327.728 61.2419 338.333 58.5527 349.705 58.5527ZM349.538 80.9313C342.874 80.9314 336.813 82.6181 331.552 85.9413V85.9234C326.275 89.2467 322.066 93.9566 319.044 99.8851C316.004 105.864 314.468 112.644 314.468 120.008C314.468 127.373 316.004 134.12 319.044 140.032C322.066 145.91 326.275 150.586 331.552 153.909C336.83 157.232 342.874 158.919 349.538 158.919C356.201 158.919 362.28 157.232 367.607 153.909C372.951 150.569 377.177 145.91 380.199 140.032C383.239 134.12 384.775 127.39 384.775 120.008C384.775 112.627 383.239 105.864 380.199 99.8851C377.177 93.9568 372.934 89.2646 367.607 85.9413C362.28 82.618 356.201 80.9313 349.538 80.9313Z" fill="#24293B"/>
<path d="M661.995 58.5527C671.546 58.5528 680.347 60.3227 688.145 63.7959C695.994 67.2862 702.475 72.2969 707.401 78.6595C712.344 85.0556 715.384 92.4875 716.42 100.771L716.653 102.641H690.233L690.05 101.17C689.332 95.1419 686.426 90.382 681.216 86.6246C675.956 82.8505 669.492 80.9313 661.977 80.9313C655.414 80.9314 649.485 82.451 644.375 85.4569V85.439C639.282 88.4283 635.24 92.8884 632.334 98.6832C629.412 104.528 627.926 111.709 627.926 119.976C627.926 128.242 629.412 135.406 632.334 141.268C635.24 147.063 639.282 151.488 644.375 154.427C649.485 157.383 655.415 158.886 661.995 158.886C669.626 158.886 676.173 156.982 681.483 153.191C686.777 149.417 689.8 144.708 690.735 138.763L690.952 137.361H716.27L716.085 139.197C715.267 147.496 712.412 154.945 707.569 161.341C702.743 167.72 696.296 172.73 688.38 176.221C680.532 179.694 671.647 181.447 661.995 181.447C651.19 181.447 641.153 179.076 632.168 174.417C623.133 169.724 615.819 162.693 610.458 153.491C605.098 144.323 602.376 132.951 602.376 120.008C602.376 107.066 605.131 95.827 610.541 86.592C615.952 77.3404 623.3 70.276 632.334 65.5833C641.336 60.9241 651.307 58.5527 661.995 58.5527Z" fill="#24293B"/>
<path d="M503.678 82.267H447.901V108.653H492.656V131.031H447.901V180.128H422.517V68.2384C422.517 63.6294 426.258 59.8884 430.867 59.8884H503.678V82.267Z" fill="#24293B"/>
<path d="M597.031 82.267H541.253V108.653H586.01V131.031H541.253V180.128H515.87V68.2384C515.87 63.6294 519.611 59.8884 524.22 59.8884H597.031V82.267Z" fill="#24293B"/>
<path d="M757.334 107.317H806.099V59.8884H831.481V180.128H806.099V129.862H757.334V180.128H732.117V59.8884H757.334V107.317Z" fill="#24293B"/>
<path fill-rule="evenodd" clip-rule="evenodd" d="M912.543 60.9582L958.518 180.128H932.032L922.012 152.907H879.244L869.224 180.128H842.922L889.13 59.8884H912.126L912.543 60.9582ZM887.493 130.863H914.114L900.804 94.624L887.493 130.863Z" fill="#24293B"/>
<path d="M994.474 180.128H968.923V59.8884H994.474V180.128Z" fill="#24293B"/>
<path d="M1040 59.8884L1087.99 138.145V59.8884H1113.38V180.128H1087.08L1038.9 102.023V180.128H1013.51V59.8884H1040Z" fill="#24293B"/>
</svg>
