<svg width="1115" height="240" viewBox="0 0 1115 240" fill="none" xmlns="http://www.w3.org/2000/svg">
<path d="M152.179 212.662L104.821 240.001L87.606 230.048L152.179 192.774V212.662ZM23.2026 140.333L29.1938 143.783L46.4087 153.718L104.821 187.446L152.18 160.107V179.995L76.5532 223.657L0.906738 179.995V160.107L76.5532 203.789L87.606 197.399L0.906738 147.329V127.46L23.2026 140.333ZM208.754 92.6523V179.995L191.521 189.93V102.605L180.468 96.2158V196.319L163.253 206.272V86.2627L115.894 58.9238L133.109 48.9893L208.754 92.6523ZM122.054 9.93457L46.4077 53.6162V66.3945L133.107 16.3232L150.322 26.2773L126.566 39.9844L122.054 42.6006L104.821 52.5352L77.3677 68.4033L74.6948 69.9395L46.4077 86.2627V140.959L29.1929 131.006V43.6621L104.821 0L122.054 9.93457ZM18.1216 124.617L0.906738 114.683V60.0059L18.1216 50.0518V124.617ZM208.752 60.0059V79.874L144.178 42.6016L161.393 32.667L208.752 60.0059Z" fill="black"/>
<path fill-rule="evenodd" clip-rule="evenodd" d="M350.61 58.5527C361.982 58.5528 372.403 61.242 381.588 66.5358V66.5521C390.773 71.8459 398.087 79.2441 403.33 88.5458C408.574 97.8309 411.23 108.419 411.23 120.008C411.23 131.598 408.574 142.186 403.33 151.471C398.087 160.756 390.773 168.154 381.588 173.464C372.403 178.758 362.099 181.447 350.61 181.447C339.12 181.447 328.632 178.758 319.464 173.464C310.279 168.171 302.965 160.772 297.721 151.471C292.477 142.186 289.821 131.598 289.821 120.008C289.821 108.419 292.477 97.8313 297.721 88.5295C302.965 79.2444 310.279 71.8463 319.464 66.5358C328.632 61.2419 339.237 58.5527 350.61 58.5527ZM350.442 80.9313C343.779 80.9314 337.717 82.6181 332.457 85.9413V85.9234C327.18 89.2467 322.971 93.9566 319.948 99.8851C316.909 105.864 315.372 112.644 315.372 120.008C315.372 127.373 316.909 134.12 319.948 140.032C322.971 145.91 327.18 150.586 332.457 153.909C337.734 157.232 343.779 158.919 350.442 158.919C357.105 158.919 363.184 157.232 368.512 153.909C373.855 150.569 378.081 145.91 381.104 140.032C384.143 134.12 385.68 127.39 385.68 120.008C385.68 112.627 384.143 105.864 381.104 99.8851C378.081 93.9568 373.839 89.2646 368.512 85.9413C363.184 82.618 357.105 80.9313 350.442 80.9313Z" fill="black"/>
<path d="M662.899 58.5527C672.451 58.5528 681.251 60.3227 689.05 63.7959C696.899 67.2862 703.379 72.2969 708.305 78.6595C713.248 85.0556 716.289 92.4875 717.324 100.771L717.557 102.641H691.137L690.955 101.17C690.236 95.1419 687.33 90.382 682.12 86.6246C676.86 82.8505 670.396 80.9313 662.881 80.9313C656.318 80.9314 650.389 82.451 645.279 85.4569V85.439C640.186 88.4283 636.144 92.8884 633.239 98.6832C630.316 104.528 628.83 111.709 628.83 119.976C628.831 128.242 630.316 135.406 633.239 141.268C636.144 147.063 640.186 151.488 645.279 154.427C650.389 157.383 656.319 158.886 662.899 158.886C670.531 158.886 677.077 156.982 682.388 153.191C687.681 149.417 690.704 144.708 691.64 138.763L691.856 137.361H717.174L716.99 139.197C716.171 147.496 713.316 154.945 708.473 161.341C703.647 167.72 697.2 172.73 689.285 176.221C681.436 179.694 672.551 181.447 662.899 181.447C652.094 181.447 642.057 179.076 633.072 174.417C624.038 169.724 616.723 162.693 611.362 153.491C606.002 144.323 603.28 132.951 603.28 120.008C603.28 107.066 606.035 95.827 611.446 86.592C616.856 77.3404 624.204 70.276 633.239 65.5833C642.24 60.9241 652.211 58.5527 662.899 58.5527Z" fill="black"/>
<path d="M504.582 82.267H448.805V108.653H493.561V131.031H448.805V180.128H423.421V68.2384C423.421 63.6294 427.162 59.8884 431.771 59.8884H504.582V82.267Z" fill="black"/>
<path d="M597.935 82.267H542.157V108.653H586.914V131.031H542.157V180.128H516.774V68.2384C516.775 63.6294 520.515 59.8884 525.124 59.8884H597.935V82.267Z" fill="black"/>
<path d="M758.239 107.317H807.003V59.8884H832.386V180.128H807.003V129.862H758.239V180.128H733.021V59.8884H758.239V107.317Z" fill="black"/>
<path fill-rule="evenodd" clip-rule="evenodd" d="M913.447 60.9582L959.423 180.128H932.936L922.916 152.907H880.149L870.128 180.128H843.826L890.035 59.8884H913.03L913.447 60.9582ZM888.397 130.863H915.018L901.708 94.624L888.397 130.863Z" fill="black"/>
<path d="M995.378 180.128H969.828V59.8884H995.378V180.128Z" fill="black"/>
<path d="M1040.9 59.8884L1088.9 138.145V59.8884H1114.28V180.128H1087.98L1039.8 102.023V180.128H1014.42V59.8884H1040.9Z" fill="black"/>
</svg>
