<svg width="1114" height="240" viewBox="0 0 1114 240" fill="none" xmlns="http://www.w3.org/2000/svg">
<path d="M151.727 212.662L104.368 240.001L87.1533 230.048L151.727 192.774V212.662ZM22.75 140.333L28.7412 143.783L45.9561 153.718L104.368 187.446L151.728 160.107V179.995L76.1006 223.657L0.454102 179.995V160.107L76.1006 203.789L87.1533 197.399L0.454102 147.329V127.46L22.75 140.333ZM208.302 92.6523V179.995L191.068 189.93V102.605L180.016 96.2158V196.319L162.801 206.272V86.2627L115.441 58.9238L132.656 48.9893L208.302 92.6523ZM121.602 9.93457L45.9551 53.6162V66.3945L132.654 16.3232L149.869 26.2773L126.113 39.9844L121.602 42.6006L104.368 52.5352L76.915 68.4033L74.2422 69.9395L45.9551 86.2627V140.959L28.7402 131.006V43.6621L104.368 0L121.602 9.93457ZM17.6689 124.617L0.454102 114.683V60.0059L17.6689 50.0518V124.617ZM208.3 60.0059V79.874L143.726 42.6016L160.94 32.667L208.3 60.0059Z" fill="white"/>
<path fill-rule="evenodd" clip-rule="evenodd" d="M350.157 58.5527C361.53 58.5528 371.95 61.242 381.135 66.5358V66.5521C390.32 71.8459 397.634 79.2441 402.878 88.5458C408.122 97.8309 410.778 108.419 410.778 120.008C410.778 131.598 408.121 142.186 402.878 151.471C397.634 160.756 390.32 168.154 381.135 173.464C371.95 178.758 361.646 181.447 350.157 181.447C338.668 181.447 328.179 178.758 319.011 173.464C309.826 168.171 302.512 160.772 297.269 151.471C292.025 142.186 289.369 131.598 289.369 120.008C289.369 108.419 292.025 97.8313 297.269 88.5295C302.512 79.2444 309.826 71.8463 319.011 66.5358C328.179 61.2419 338.784 58.5527 350.157 58.5527ZM349.989 80.9313C343.326 80.9314 337.264 82.6181 332.004 85.9413V85.9234C326.727 89.2467 322.518 93.9566 319.495 99.8851C316.456 105.864 314.919 112.644 314.919 120.008C314.919 127.373 316.456 134.12 319.495 140.032C322.518 145.91 326.727 150.586 332.004 153.909C337.281 157.232 343.326 158.919 349.989 158.919C356.652 158.919 362.732 157.232 368.059 153.909C373.403 150.569 377.628 145.91 380.651 140.032C383.69 134.12 385.227 127.39 385.227 120.008C385.227 112.627 383.69 105.864 380.651 99.8851C377.628 93.9568 373.386 89.2646 368.059 85.9413C362.732 82.618 356.652 80.9313 349.989 80.9313Z" fill="white"/>
<path d="M662.446 58.5527C671.998 58.5528 680.799 60.3227 688.597 63.7959C696.446 67.2862 702.926 72.2969 707.853 78.6595C712.796 85.0556 715.836 92.4875 716.871 100.771L717.104 102.641H690.685L690.502 101.17C689.784 95.1419 686.878 90.382 681.668 86.6246C676.407 82.8505 669.943 80.9313 662.428 80.9313C655.866 80.9314 649.937 82.451 644.827 85.4569V85.439C639.733 88.4283 635.692 92.8884 632.786 98.6832C629.864 104.528 628.378 111.709 628.378 119.976C628.378 128.242 629.864 135.406 632.786 141.268C635.692 147.063 639.733 151.488 644.827 154.427C649.937 157.383 655.867 158.886 662.446 158.886C670.078 158.886 676.625 156.982 681.935 153.191C687.229 149.417 690.252 144.708 691.187 138.763L691.404 137.361H716.721L716.537 139.197C715.719 147.496 712.863 154.945 708.021 161.341C703.194 167.72 696.748 172.73 688.832 176.221C680.983 179.694 672.099 181.447 662.446 181.447C651.642 181.447 641.604 179.076 632.62 174.417C623.585 169.724 616.27 162.693 610.91 153.491C605.549 144.323 602.827 132.951 602.827 120.008C602.827 107.066 605.582 95.827 610.993 86.592C616.404 77.3404 623.752 70.276 632.786 65.5833C641.787 60.9241 651.758 58.5527 662.446 58.5527Z" fill="white"/>
<path d="M504.129 82.267H448.353V108.653H493.108V131.031H448.353V180.128H422.968V68.2384C422.969 63.6294 426.709 59.8884 431.318 59.8884H504.129V82.267Z" fill="white"/>
<path d="M597.483 82.267H541.704V108.653H586.462V131.031H541.704V180.128H516.322V68.2384C516.322 63.6294 520.063 59.8884 524.672 59.8884H597.483V82.267Z" fill="white"/>
<path d="M757.786 107.317H806.55V59.8884H831.933V180.128H806.55V129.862H757.786V180.128H732.568V59.8884H757.786V107.317Z" fill="white"/>
<path fill-rule="evenodd" clip-rule="evenodd" d="M912.995 60.9582L958.97 180.128H932.483L922.463 152.907H879.696L869.676 180.128H843.373L889.582 59.8884H912.577L912.995 60.9582ZM887.945 130.863H914.565L901.256 94.624L887.945 130.863Z" fill="white"/>
<path d="M994.926 180.128H969.375V59.8884H994.926V180.128Z" fill="white"/>
<path d="M1040.45 59.8884L1088.45 138.145V59.8884H1113.83V180.128H1087.53L1039.35 102.023V180.128H1013.96V59.8884H1040.45Z" fill="white"/>
</svg>
