<svg width="278" height="321" viewBox="0 0 278 321" fill="none" xmlns="http://www.w3.org/2000/svg">
<path d="M202.418 284.176L139.272 320.627L116.319 307.355L202.418 257.658V284.176ZM30.4482 187.738L38.4355 192.339L61.3887 205.585L139.271 250.555L202.417 214.104V240.62L101.581 298.837L0.720703 240.62V214.104L101.581 272.345L116.318 263.826L0.720703 197.065V170.574L30.4482 187.738ZM277.849 124.163V240.62L254.87 253.866V137.434L240.133 128.915V262.386L217.18 275.656V115.644L154.034 79.1924L176.987 65.9463L277.849 124.163ZM162.25 13.873L61.3887 72.1143V89.1523L176.987 22.3916L199.939 35.6631L168.266 53.9395L162.25 57.4277L139.271 70.6738L102.668 91.832L99.1045 93.8789L61.3887 115.644V188.572L38.4355 175.301V58.8428L139.271 0.626953L162.25 13.873ZM23.6729 166.782L0.720703 153.536V80.6328L23.6729 67.3623V166.782ZM277.849 80.6328V107.125L191.75 57.4277L214.703 44.1816L277.849 80.6328Z" fill="white"/>
</svg>
