<svg width="837" height="420" viewBox="0 0 837 420" fill="none" xmlns="http://www.w3.org/2000/svg">
<path d="M466.822 218.643L418.132 246.75L400.433 236.517L466.822 198.195V218.643ZM334.219 144.278L340.379 147.826L358.077 158.04L418.132 192.716L466.823 164.608V185.056L389.069 229.945L311.297 185.056V164.608L389.069 209.519L400.434 202.949L311.297 151.471V131.044L334.219 144.278ZM524.988 95.2578V185.058L507.27 195.271V105.491L495.906 98.9219V201.84L478.207 212.073V88.6885L429.517 60.582L447.215 50.3682L524.988 95.2578ZM435.85 10.2139L358.077 55.123V68.2607L447.214 16.7832L464.912 27.0156L440.488 41.1084L435.85 43.7988L418.132 54.0127L389.907 70.3271L387.159 71.9062L358.077 88.6885V144.923L340.378 134.689V44.8906L418.132 0L435.85 10.2139ZM328.995 128.121L311.297 117.907V61.6924L328.995 51.459V128.121ZM524.985 61.6914V82.1191L458.596 43.7979L476.295 33.584L524.985 61.6914Z" fill="#24293B"/>
<path fill-rule="evenodd" clip-rule="evenodd" d="M61.8526 295.412C73.3819 295.412 83.9465 298.138 93.258 303.505V303.522C102.569 308.889 109.984 316.389 115.3 325.819C120.617 335.232 123.309 345.966 123.309 357.715C123.309 369.465 120.617 380.199 115.3 389.612C109.984 399.025 102.569 406.525 93.258 411.909C83.9465 417.276 73.5004 420.002 61.8526 420.002C50.2045 420.002 39.5716 417.276 30.2769 411.909C20.9654 406.542 13.5505 399.042 8.23442 389.612C2.91834 380.199 0.225586 369.465 0.225586 357.715C0.225636 345.966 2.91835 335.232 8.23442 325.802C13.5505 316.389 20.9654 308.889 30.2769 303.505C39.5716 298.138 50.3231 295.412 61.8526 295.412ZM61.6823 318.099C54.9273 318.099 48.7821 319.809 43.4492 323.178V323.16C38.0992 326.529 33.8323 331.304 30.7679 337.315C27.6867 343.376 26.1287 350.249 26.1286 357.715C26.1286 365.182 27.6866 372.022 30.7679 378.015C33.8323 383.975 38.0992 388.714 43.4492 392.084C48.799 395.453 54.9273 397.163 61.6823 397.163C68.4375 397.163 74.6007 395.453 80.0014 392.084C85.4189 388.698 89.7027 383.974 92.767 378.015C95.8483 372.022 97.4063 365.199 97.4063 357.715C97.4062 350.232 95.8482 343.376 92.767 337.315C89.7027 331.305 85.402 326.548 80.0014 323.178C74.6007 319.809 68.4375 318.099 61.6823 318.099Z" fill="#24293B"/>
<path d="M378.45 295.412C388.133 295.412 397.055 297.206 404.961 300.728C412.918 304.266 419.488 309.346 424.482 315.796C429.494 322.281 432.576 329.815 433.625 338.212L433.862 340.109H407.077L406.892 338.617C406.164 332.506 403.218 327.68 397.936 323.871C392.603 320.045 386.05 318.099 378.431 318.099C371.778 318.099 365.767 319.64 360.587 322.687V322.669C355.423 325.7 351.326 330.221 348.38 336.096C345.417 342.022 343.911 349.302 343.911 357.682C343.911 366.063 345.417 373.326 348.38 379.268C351.326 385.143 355.423 389.63 360.587 392.609C365.767 395.606 371.779 397.13 378.45 397.13C386.186 397.129 392.823 395.199 398.207 391.356C403.574 387.53 406.638 382.756 407.587 376.729L407.806 375.307H433.473L433.286 377.169C432.457 385.583 429.562 393.134 424.652 399.618C419.76 406.085 413.224 411.165 405.199 414.703C397.242 418.224 388.235 420.002 378.45 420.002C367.496 420.002 357.32 417.598 348.211 412.874C339.052 408.117 331.637 400.989 326.202 391.66C320.768 382.366 318.008 370.836 318.008 357.715C318.008 344.595 320.801 333.201 326.286 323.838C331.772 314.459 339.221 307.297 348.38 302.54C357.506 297.816 367.614 295.412 378.45 295.412Z" fill="#24293B"/>
<path d="M217.949 319.453H161.403V346.203H206.775V368.89H161.403V418.664H135.668V305.231C135.668 300.559 139.461 296.766 144.133 296.766H217.949V319.453Z" fill="#24293B"/>
<path d="M312.59 319.453H256.042V346.203H301.417V368.89H256.042V418.664H230.309V305.231C230.31 300.559 234.102 296.766 238.774 296.766H312.59V319.453Z" fill="#24293B"/>
<path d="M475.104 344.849H524.541V296.766H550.274V418.664H524.541V367.705H475.104V418.664H449.539V296.766H475.104V344.849Z" fill="#24293B"/>
<path fill-rule="evenodd" clip-rule="evenodd" d="M632.454 297.851L679.064 418.664H652.211L642.053 391.068H598.696L588.538 418.664H561.872L608.718 296.766H632.031L632.454 297.851ZM607.059 368.72H634.046L620.553 331.981L607.059 368.72Z" fill="#24293B"/>
<path d="M715.515 418.664H689.612V296.766H715.515V418.664Z" fill="#24293B"/>
<path d="M761.667 296.766L810.325 376.102V296.766H836.059V418.664H809.394L760.549 339.482V418.664H734.815V296.766H761.667Z" fill="#24293B"/>
</svg>
